<svg xmlns="http://www.w3.org/2000/svg" xmlns:xlink="http://www.w3.org/1999/xlink" width="32px" height="32px" viewBox="0 0 32 32" version="1.1">
<defs>
<linearGradient id="linear0" gradientUnits="userSpaceOnUse" x1="-277.375" y1="406.6018" x2="-277.375" y2="407.5726" gradientTransform="matrix(32,0,0,-31.82224,8892.0008,12969.8672)">
<stop offset="0" style="stop-color:rgb(0%,38.431373%,87.843137%);stop-opacity:1;"/>
<stop offset="1" style="stop-color:rgb(9.803922%,68.627451%,100%);stop-opacity:1;"/>
</linearGradient>
</defs>
<g id="surface1">
<path style=" stroke:none;fill-rule:nonzero;fill:url(#linear0);" d="M 13.359375 31.839844 C 5.761719 30.480469 0 23.921875 0 16 C 0 7.199219 7.199219 0 16 0 C 24.800781 0 32 7.199219 32 16 C 32 23.921875 26.238281 30.480469 18.640625 31.839844 L 17.761719 31.121094 L 14.238281 31.121094 Z M 13.359375 31.839844 "/>
<path style=" stroke:none;fill-rule:nonzero;fill:rgb(100%,100%,100%);fill-opacity:1;" d="M 22.238281 20.480469 L 22.960938 16 L 18.71875 16 L 18.71875 12.878906 C 18.71875 11.601562 19.199219 10.640625 21.121094 10.640625 L 23.199219 10.640625 L 23.199219 6.558594 C 22.078125 6.398438 20.800781 6.238281 19.679688 6.238281 C 16 6.238281 13.441406 8.480469 13.441406 12.480469 L 13.441406 16 L 9.441406 16 L 9.441406 20.480469 L 13.441406 20.480469 L 13.441406 31.761719 C 14.320312 31.921875 15.199219 32 16.078125 32 C 16.960938 32 17.839844 31.921875 18.71875 31.761719 L 18.71875 20.480469 Z M 22.238281 20.480469 "/>
</g>
</svg>
