<svg xmlns="http://www.w3.org/2000/svg" xmlns:xlink="http://www.w3.org/1999/xlink" width="32px" height="32px" viewBox="0 0 32 32" version="1.1">
<g id="surface1">
<path style=" stroke:none;fill-rule:evenodd;fill:rgb(0%,49.411765%,73.333333%);fill-opacity:1;" d="M 16 32 C 24.835938 32 32 24.835938 32 16 C 32 7.164062 24.835938 0 16 0 C 7.164062 0 0 7.164062 0 16 C 0 24.835938 7.164062 32 16 32 Z M 16 32 "/>
<path style=" stroke:none;fill-rule:evenodd;fill:rgb(100%,100%,100%);fill-opacity:1;" d="M 26.222656 25.332031 L 22.203125 25.332031 L 22.203125 18.488281 C 22.203125 16.613281 21.492188 15.566406 20.007812 15.566406 C 18.390625 15.566406 17.546875 16.65625 17.546875 18.488281 L 17.546875 25.332031 L 13.675781 25.332031 L 13.675781 12.296875 L 17.546875 12.296875 L 17.546875 14.050781 C 17.546875 14.050781 18.710938 11.898438 21.476562 11.898438 C 24.242188 11.898438 26.222656 13.585938 26.222656 17.078125 Z M 9.054688 10.589844 C 7.734375 10.589844 6.667969 9.511719 6.667969 8.183594 C 6.667969 6.855469 7.734375 5.777344 9.054688 5.777344 C 10.375 5.777344 11.441406 6.855469 11.441406 8.183594 C 11.441406 9.511719 10.375 10.589844 9.054688 10.589844 Z M 7.054688 25.332031 L 11.09375 25.332031 L 11.09375 12.296875 L 7.054688 12.296875 Z M 7.054688 25.332031 "/>
</g>
</svg>
