<svg xmlns="http://www.w3.org/2000/svg" xmlns:xlink="http://www.w3.org/1999/xlink" width="32px" height="26px" viewBox="0 0 31 26" version="1.1">
<g id="surface1">
<path style=" stroke:none;fill-rule:nonzero;fill:rgb(11.372549%,60.784314%,94.117647%);fill-opacity:1;" d="M 27.742188 6.535156 C 27.761719 6.8125 27.761719 7.089844 27.761719 7.371094 C 27.761719 15.875 21.414062 25.683594 9.800781 25.683594 L 9.800781 25.675781 C 6.371094 25.683594 3.011719 24.679688 0.125 22.792969 C 0.625 22.851562 1.125 22.882812 1.628906 22.886719 C 4.46875 22.886719 7.230469 21.914062 9.46875 20.125 C 6.765625 20.070312 4.398438 18.277344 3.570312 15.65625 C 4.515625 15.839844 5.492188 15.800781 6.421875 15.542969 C 3.476562 14.9375 1.355469 12.300781 1.355469 9.234375 L 1.355469 9.152344 C 2.234375 9.652344 3.214844 9.929688 4.222656 9.960938 C 1.449219 8.070312 0.59375 4.304688 2.265625 1.363281 C 5.472656 5.386719 10.203125 7.832031 15.277344 8.089844 C 14.769531 5.855469 15.464844 3.511719 17.105469 1.941406 C 19.644531 -0.496094 23.644531 -0.371094 26.035156 2.21875 C 27.449219 1.933594 28.804688 1.40625 30.042969 0.65625 C 29.574219 2.144531 28.585938 3.410156 27.269531 4.214844 C 28.519531 4.066406 29.742188 3.722656 30.894531 3.203125 C 30.046875 4.496094 28.980469 5.625 27.742188 6.535156 Z M 27.742188 6.535156 "/>
</g>
</svg>
